<svg width="177" height="177" viewBox="0 0 177 177" fill="none" xmlns="http://www.w3.org/2000/svg">
<path d="M88.5 95.875C96.3239 95.875 103.827 92.767 109.36 87.2347C114.892 81.7023 118 74.1989 118 66.375C118 58.5511 114.892 51.0477 109.36 45.5153C103.827 39.983 96.3239 36.875 88.5 36.875C80.6761 36.875 73.1727 39.983 67.6403 45.5153C62.108 51.0477 59 58.5511 59 66.375C59 74.1989 62.108 81.7023 67.6403 87.2347C73.1727 92.767 80.6761 95.875 88.5 95.875ZM88.5 95.875C76.7642 95.875 65.509 100.537 57.2105 108.836C48.912 117.134 44.25 128.389 44.25 140.125V162.25M88.5 95.875C100.236 95.875 111.491 100.537 119.789 108.836C128.088 117.134 132.75 128.389 132.75 140.125V162.25M95.875 36.875C98.8545 24.603 110.736 14.75 125.375 14.75C141.393 14.75 154.728 27.9512 154.875 44.25C154.728 60.5488 141.393 73.75 125.375 73.75M125.375 73.75H118M125.375 73.75C149.624 73.75 169.625 93.5593 169.625 118V132.75M81.125 36.875C78.1455 24.603 66.2644 14.75 51.625 14.75C35.6065 14.75 22.2725 27.9512 22.125 44.25C22.2725 60.5488 35.6065 73.75 51.625 73.75M51.625 73.75H59M51.625 73.75C27.376 73.75 7.375 93.5593 7.375 118V132.75" stroke="black" stroke-width="6"/>
</svg>
